<svg width="16" height="16" viewBox="0 0 16 18" fill="none" xmlns="http://www.w3.org/2000/svg">
    <path fill-rule="evenodd" clip-rule="evenodd" d="M11.6896 4.33007C13.7592 4.33007 15.0827 6.30334 15.0827 6.30334C15.0827 6.30334 13.0638 7.3829 13.0638 9.72745C13.0638 12.5102 15.6 13.3196 15.6 13.3196C15.6 13.3196 13.5982 18 11.3504 18C10.0865 18 10.002 17.2835 8.32233 17.2835C6.86364 17.2835 6.37173 18 5.26053 18C3.13969 18 0.4 13.4377 0.4 9.72745C0.4 5.87342 3.17382 4.33007 4.9126 4.33007C6.43956 4.33007 7.07547 5.21552 8.30526 5.21552C9.3403 5.21552 10.1548 4.33007 11.6896 4.33007ZM11.3338 0.399994C11.6388 2.28901 9.90004 4.62531 7.82209 4.54932C7.51661 2.14571 9.75606 0.526797 11.3338 0.399994Z" fill="#9B9B9B"/>
</svg>